<svg width="20" height="20" viewBox="0 0 20 20" fill="none" xmlns="http://www.w3.org/2000/svg">
<path d="M4.917 8.833C4.417 8.25 4.167 7.583 4.167 6.917C4.167 6.167 4.417 5.5 5 5C6 4 7.833 4 8.833 5L10.667 6.833C10.7422 6.91197 10.8326 6.97483 10.9328 7.01779C11.0331 7.06075 11.141 7.0829 11.25 7.0829C11.359 7.0829 11.4669 7.06075 11.5672 7.01779C11.6674 6.97483 11.7578 6.91197 11.833 6.833C11.912 6.75781 11.9748 6.66737 12.0178 6.56715C12.0607 6.46693 12.0829 6.35904 12.0829 6.25C12.0829 6.14096 12.0607 6.03307 12.0178 5.93285C11.9748 5.83263 11.912 5.74219 11.833 5.667L10 3.75C9.167 3 8 2.5 6.833 2.5C5.667 2.5 4.583 3 3.75 3.75C2.917 4.583 2.5 5.75 2.5 6.917C2.5 8.083 2.917 9.167 3.75 10L5.583 11.833C5.74081 11.9845 5.94842 12.0734 6.167 12.083C6.38523 12.0732 6.59245 11.9843 6.75 11.833C6.82897 11.7578 6.89183 11.6674 6.93479 11.5672C6.97775 11.4669 6.9999 11.359 6.9999 11.25C6.9999 11.141 6.97775 11.0331 6.93479 10.9328C6.89183 10.8326 6.82897 10.7422 6.75 10.667L4.917 8.833ZM16.25 10L14.417 8.167C14.3417 8.08801 14.2512 8.02512 14.1509 7.98215C14.0506 7.93918 13.9426 7.91703 13.8335 7.91703C13.7244 7.91703 13.6164 7.93918 13.5161 7.98215C13.4158 8.02512 13.3253 8.08801 13.25 8.167C13.1712 8.24226 13.1084 8.33273 13.0655 8.43294C13.0227 8.53314 13.0005 8.64101 13.0005 8.75C13.0005 8.85899 13.0227 8.96686 13.0655 9.06706C13.1084 9.16727 13.1712 9.25774 13.25 9.333L15.083 11.25C15.583 11.75 15.917 12.417 15.917 13.167C15.917 13.917 15.667 14.583 15.083 15.083C14 16.167 12.333 16.167 11.25 15.083L9.417 13.25C9.34173 13.171 9.25119 13.1081 9.1509 13.0651C9.0506 13.0222 8.94262 13 8.8335 13C8.72438 13 8.6164 13.0222 8.5161 13.0651C8.41581 13.1081 8.32527 13.171 8.25 13.25C8.17101 13.3253 8.10812 13.4158 8.06515 13.5161C8.02218 13.6164 8.00002 13.7244 8.00002 13.8335C8.00002 13.9426 8.02218 14.0506 8.06515 14.1509C8.10812 14.2512 8.17101 14.3417 8.25 14.417L10.083 16.25C10.917 17.083 12.083 17.5 13.167 17.5C14.25 17.5 15.417 17.083 16.25 16.25C17.083 15.417 17.5 14.333 17.5 13.167C17.5 11.917 17.083 10.833 16.25 10Z" fill="#273144"/>
<path d="M12.25 12.25C12.1767 12.3314 12.0866 12.3959 11.986 12.4391C11.8853 12.4823 11.7765 12.5031 11.667 12.5C11.5573 12.5031 11.4483 12.4824 11.3475 12.4392C11.2466 12.3961 11.1564 12.3315 11.083 12.25L7.74998 8.91701C7.67098 8.84173 7.60809 8.7512 7.56512 8.6509C7.52216 8.5506 7.5 8.44262 7.5 8.33351C7.5 8.22439 7.52216 8.11641 7.56512 8.01611C7.60809 7.91581 7.67098 7.82528 7.74998 7.75001C7.82525 7.67101 7.91578 7.60812 8.01608 7.56516C8.11638 7.52219 8.22436 7.50003 8.33348 7.50003C8.44259 7.50003 8.55057 7.52219 8.65087 7.56516C8.75117 7.60812 8.8417 7.67101 8.91698 7.75001L12.25 11.083C12.329 11.1583 12.3919 11.2488 12.4348 11.3491C12.4778 11.4494 12.5 11.5574 12.5 11.6665C12.5 11.7756 12.4778 11.8836 12.4348 11.9839C12.3919 12.0842 12.329 12.1747 12.25 12.25Z" fill="#273144"/>
</svg>
