<svg width="16" height="16" viewBox="0 0 16 16" fill="none" xmlns="http://www.w3.org/2000/svg">
<g clip-path="url(#clip0_1_203)">
<path d="M2 11.5V14H4.5L11.8733 6.62666L9.37333 4.12666L2 11.5ZM13.8067 4.69333C13.8685 4.63165 13.9175 4.5584 13.951 4.47775C13.9844 4.3971 14.0016 4.31064 14.0016 4.22333C14.0016 4.13602 13.9844 4.04956 13.951 3.96891C13.9175 3.88827 13.8685 3.81501 13.8067 3.75333L12.2467 2.19333C12.185 2.13153 12.1117 2.0825 12.0311 2.04904C11.9504 2.01559 11.864 1.99837 11.7767 1.99837C11.6894 1.99837 11.6029 2.01559 11.5223 2.04904C11.4416 2.0825 11.3683 2.13153 11.3067 2.19333L10.0867 3.41333L12.5867 5.91333L13.8067 4.69333Z" fill="black"/>
</g>
<defs>
<clipPath id="clip0_1_203">
<rect width="16" height="16" fill="white"/>
</clipPath>
</defs>
</svg>
