<svg width="16" height="16" viewBox="0 0 16 16" fill="none" xmlns="http://www.w3.org/2000/svg">
<path d="M2.167 7.167H5.5C6.417 7.167 7.167 6.417 7.167 5.5V2.167C7.167 1.25 6.417 0.5 5.5 0.5H2.167C1.25 0.5 0.5 1.25 0.5 2.167V5.5C0.5 6.417 1.25 7.167 2.167 7.167ZM2.167 2.167H5.5V5.5H2.167V2.167ZM2.167 15.5H5.5C6.417 15.5 7.167 14.75 7.167 13.833V10.5C7.167 9.583 6.417 8.833 5.5 8.833H2.167C1.25 8.833 0.5 9.583 0.5 10.5V13.833C0.5 14.75 1.25 15.5 2.167 15.5ZM2.167 10.5H5.5V13.833H2.167V10.5ZM8.833 5.5V2.167C8.833 1.25 9.583 0.5 10.5 0.5H13.833C14.75 0.5 15.5 1.25 15.5 2.167V5.5C15.5 6.417 14.75 7.167 13.833 7.167H10.5C9.583 7.167 8.833 6.417 8.833 5.5ZM10.5 5.5H13.833V2.167H10.5V5.5ZM15.5 15.083V14.25C15.5005 14.1951 15.4901 14.1406 15.4693 14.0898C15.4486 14.039 15.4179 13.9928 15.3791 13.9539C15.3402 13.9151 15.294 13.8844 15.2432 13.8637C15.1924 13.8429 15.1379 13.8325 15.083 13.833H14.25C14.1951 13.8325 14.1406 13.8429 14.0898 13.8637C14.039 13.8844 13.9928 13.9151 13.9539 13.9539C13.9151 13.9928 13.8844 14.039 13.8637 14.0898C13.8429 14.1406 13.8325 14.1951 13.833 14.25V15.083C13.833 15.317 14.017 15.5 14.25 15.5H15.083C15.1379 15.5005 15.1924 15.4901 15.2432 15.4693C15.294 15.4486 15.3402 15.4179 15.3791 15.3791C15.4179 15.3402 15.4486 15.294 15.4693 15.2432C15.4901 15.1924 15.5005 15.1379 15.5 15.083ZM8.833 10.083V9.25C8.833 9.017 9.017 8.833 9.25 8.833H10.083C10.317 8.833 10.5 9.017 10.5 9.25V10.083C10.5005 10.1379 10.4901 10.1924 10.4693 10.2432C10.4486 10.294 10.4179 10.3402 10.3791 10.3791C10.3402 10.4179 10.294 10.4486 10.2432 10.4693C10.1924 10.4901 10.1379 10.5005 10.083 10.5H9.25C9.19509 10.5005 9.14062 10.4901 9.08979 10.4693C9.03896 10.4486 8.99277 10.4179 8.95395 10.3791C8.91512 10.3402 8.88442 10.294 8.86365 10.2432C8.84289 10.1924 8.83247 10.1379 8.833 10.083ZM11.75 10.5H10.917C10.8621 10.4995 10.8076 10.5099 10.7568 10.5307C10.706 10.5514 10.6598 10.5821 10.6209 10.6209C10.5821 10.6598 10.5514 10.706 10.5307 10.7568C10.5099 10.8076 10.4995 10.8621 10.5 10.917V11.75C10.5 11.983 10.683 12.167 10.917 12.167H11.75C11.8049 12.1675 11.8594 12.1571 11.9102 12.1363C11.961 12.1156 12.0072 12.0849 12.0461 12.0461C12.0849 12.0072 12.1156 11.961 12.1363 11.9102C12.1571 11.8594 12.1675 11.8049 12.167 11.75V10.917C12.1675 10.8621 12.1571 10.8076 12.1363 10.7568C12.1156 10.706 12.0849 10.6598 12.0461 10.6209C12.0072 10.5821 11.961 10.5514 11.9102 10.5307C11.8594 10.5099 11.8049 10.4995 11.75 10.5ZM8.833 13.417V12.583C8.833 12.35 9.017 12.167 9.25 12.167H10.083C10.317 12.167 10.5 12.35 10.5 12.583V13.417C10.5004 13.4718 10.4899 13.5262 10.4691 13.5769C10.4482 13.6276 10.4175 13.6737 10.3787 13.7124C10.3399 13.7511 10.2937 13.7817 10.243 13.8024C10.1922 13.8231 10.1378 13.8335 10.083 13.833H9.25C9.19518 13.8335 9.14079 13.8231 9.09002 13.8024C9.03926 13.7817 8.99312 13.7511 8.9543 13.7124C8.91549 13.6737 8.88477 13.6276 8.86395 13.5769C8.84312 13.5262 8.8326 13.4718 8.833 13.417ZM10.917 15.5H11.75C11.8049 15.5005 11.8594 15.4901 11.9102 15.4693C11.961 15.4486 12.0072 15.4179 12.0461 15.3791C12.0849 15.3402 12.1156 15.294 12.1363 15.2432C12.1571 15.1924 12.1675 15.1379 12.167 15.083V14.25C12.1675 14.1951 12.1571 14.1406 12.1363 14.0898C12.1156 14.039 12.0849 13.9928 12.0461 13.9539C12.0072 13.9151 11.961 13.8844 11.9102 13.8637C11.8594 13.8429 11.8049 13.8325 11.75 13.833H10.917C10.8621 13.8325 10.8076 13.8429 10.7568 13.8637C10.706 13.8844 10.6598 13.9151 10.6209 13.9539C10.5821 13.9928 10.5514 14.039 10.5307 14.0898C10.5099 14.1406 10.4995 14.1951 10.5 14.25V15.083C10.5 15.317 10.683 15.5 10.917 15.5ZM13.417 13.833H12.583C12.5283 13.8334 12.474 13.8229 12.4233 13.8021C12.3727 13.7814 12.3267 13.7508 12.288 13.712C12.2492 13.6733 12.2186 13.6273 12.1979 13.5767C12.1771 13.526 12.1666 13.4717 12.167 13.417V12.583C12.167 12.35 12.35 12.167 12.583 12.167H13.417C13.65 12.167 13.833 12.35 13.833 12.583V13.417C13.8334 13.4717 13.8229 13.526 13.8021 13.5767C13.7814 13.6273 13.7508 13.6733 13.712 13.712C13.6733 13.7508 13.6273 13.7814 13.5767 13.8021C13.526 13.8229 13.4717 13.8334 13.417 13.833ZM13.417 8.833H12.583C12.5282 8.8326 12.4738 8.84312 12.4231 8.86395C12.3724 8.88477 12.3263 8.91549 12.2876 8.9543C12.2489 8.99312 12.2183 9.03926 12.1976 9.09002C12.1769 9.14079 12.1665 9.19518 12.167 9.25V10.083C12.167 10.317 12.35 10.5 12.583 10.5H13.417C13.4718 10.5004 13.5262 10.4899 13.5769 10.4691C13.6276 10.4482 13.6737 10.4175 13.7124 10.3787C13.7511 10.3399 13.7817 10.2937 13.8024 10.243C13.8231 10.1922 13.8335 10.1378 13.833 10.083V9.25C13.8335 9.19518 13.8231 9.14079 13.8024 9.09002C13.7817 9.03926 13.7511 8.99312 13.7124 8.9543C13.6737 8.91549 13.6276 8.88477 13.5769 8.86395C13.5262 8.84312 13.4718 8.8326 13.417 8.833ZM15.083 12.167H14.25C14.1951 12.1675 14.1406 12.1571 14.0898 12.1363C14.039 12.1156 13.9928 12.0849 13.9539 12.0461C13.9151 12.0072 13.8844 11.961 13.8637 11.9102C13.8429 11.8594 13.8325 11.8049 13.833 11.75V10.917C13.833 10.683 14.017 10.5 14.25 10.5H15.083C15.317 10.5 15.5 10.683 15.5 10.917V11.75C15.5005 11.8049 15.4901 11.8594 15.4693 11.9102C15.4486 11.961 15.4179 12.0072 15.3791 12.0461C15.3402 12.0849 15.294 12.1156 15.2432 12.1363C15.1924 12.1571 15.1379 12.1675 15.083 12.167Z" fill="#273144"/>
</svg>
